<svg width="43" height="35" viewBox="0 0 43 35" fill="none" xmlns="http://www.w3.org/2000/svg">
<g id="Icons">
<mask id="mask0_25_519" style="mask-type:alpha" maskUnits="userSpaceOnUse" x="0" y="0" width="43" height="35">
<rect id="Bounding box" width="43" height="35" fill="#D9D9D9"/>
</mask>
<g mask="url(#mask0_25_519)">
<path id="space_dashboard" d="M8.95833 30.625C7.97292 30.625 7.12904 30.3397 6.42671 29.769C5.72557 29.1973 5.375 28.5104 5.375 27.7083V7.29167C5.375 6.48958 5.72557 5.80271 6.42671 5.23104C7.12904 4.66035 7.97292 4.375 8.95833 4.375H16.125C17.1104 4.375 17.9543 4.66035 18.6566 5.23104C19.3578 5.80271 19.7083 6.48958 19.7083 7.29167V27.7083C19.7083 28.5104 19.3578 29.1973 18.6566 29.769C17.9543 30.3397 17.1104 30.625 16.125 30.625H8.95833ZM26.875 14.5833C25.8896 14.5833 25.0463 14.2975 24.3452 13.7258C23.6428 13.1551 23.2917 12.4688 23.2917 11.6667V7.29167C23.2917 6.48958 23.6428 5.80271 24.3452 5.23104C25.0463 4.66035 25.8896 4.375 26.875 4.375H34.0417C35.0271 4.375 35.871 4.66035 36.5733 5.23104C37.2744 5.80271 37.625 6.48958 37.625 7.29167V11.6667C37.625 12.4688 37.2744 13.1551 36.5733 13.7258C35.871 14.2975 35.0271 14.5833 34.0417 14.5833H26.875ZM26.875 30.625C25.8896 30.625 25.0463 30.3397 24.3452 29.769C23.6428 29.1973 23.2917 28.5104 23.2917 27.7083V20.4167C23.2917 19.6146 23.6428 18.9277 24.3452 18.356C25.0463 17.7853 25.8896 17.5 26.875 17.5H34.0417C35.0271 17.5 35.871 17.7853 36.5733 18.356C37.2744 18.9277 37.625 19.6146 37.625 20.4167V27.7083C37.625 28.5104 37.2744 29.1973 36.5733 29.769C35.871 30.3397 35.0271 30.625 34.0417 30.625H26.875Z" fill="#3B4758"/>
</g>
</g>
</svg>
